<?xml version="1.0" encoding="UTF-8" standalone="no"?>
<svg
   viewBox="0 0 18 18"
   version="1.2"
   id="svg4"
   sodipodi:docname="close-symbolic.svg"
   inkscape:version="1.4.3 (0d15f75042, 2025-12-25)"
   width="18"
   height="18"
   xmlns:inkscape="http://www.inkscape.org/namespaces/inkscape"
   xmlns:sodipodi="http://sodipodi.sourceforge.net/DTD/sodipodi-0.dtd"
   xmlns="http://www.w3.org/2000/svg"
   xmlns:svg="http://www.w3.org/2000/svg"
   xmlns:rdf="http://www.w3.org/1999/02/22-rdf-syntax-ns#"
   xmlns:cc="http://creativecommons.org/ns#"
   xmlns:dc="http://purl.org/dc/elements/1.1/">
  <sodipodi:namedview
     id="namedview4"
     pagecolor="#505050"
     bordercolor="#eeeeee"
     borderopacity="1"
     inkscape:showpageshadow="0"
     inkscape:pageopacity="0"
     inkscape:pagecheckerboard="0"
     inkscape:deskcolor="#505050"
     inkscape:zoom="45.254834"
     inkscape:cx="10.971204"
     inkscape:cy="9.3581163"
     inkscape:window-width="1920"
     inkscape:window-height="1018"
     inkscape:window-x="0"
     inkscape:window-y="0"
     inkscape:window-maximized="1"
     inkscape:current-layer="svg4"
     showgrid="true">
    <inkscape:grid
       id="grid1"
       units="px"
       originx="0"
       originy="0"
       spacingx="1"
       spacingy="1"
       empcolor="#0099e5"
       empopacity="0.30196078"
       color="#0099e5"
       opacity="0.14901961"
       empspacing="5"
       enabled="true"
       visible="true" />
  </sodipodi:namedview>
  <title
     id="title1">Qt SVG Document</title>
  <desc
     id="desc1">Generated with Qt</desc>
  <defs
     id="defs1" />
  <path
     id="polyline1"
     style="color:#bebebe;font-size:10px;font-family:'Noto Sans';baseline-shift:baseline;display:inline;overflow:visible;opacity:1;vector-effect:none;fill:#bebebe;fill-rule:evenodd;stroke-width:2.5;stroke-linecap:round;stroke-miterlimit:2;enable-background:accumulate;stop-color:#000000;stop-opacity:1"
     d="m 5.4495324,5.0001765 a 0.44824652,0.44824652 0 0 0 -0.3176003,0.1317556 0.44824652,0.44824652 0 0 0 0,0.6352007 L 8.3647992,8.9999999 5.1319321,12.232868 a 0.44824652,0.44824652 0 0 0 0,0.6352 0.44824652,0.44824652 0 0 0 0.6352008,0 L 9.0000001,9.6352006 12.232868,12.868068 a 0.44824652,0.44824652 0 0 0 0.6352,0 0.44824652,0.44824652 0 0 0 0,-0.6352 L 9.6352007,8.9999999 12.868068,5.7671328 a 0.44824652,0.44824652 0 0 0 0,-0.6352007 0.44824652,0.44824652 0 0 0 -0.6352,0 L 9.0000001,8.364799 5.7671329,5.1319321 A 0.44824652,0.44824652 0 0 0 5.4495324,5.0001765 Z" />
  <metadata
     id="metadata1">
    <rdf:RDF>
      <cc:Work
         rdf:about="">
        <dc:title>Qt SVG Document</dc:title>
      </cc:Work>
    </rdf:RDF>
  </metadata>
</svg>
